<svg width="14" height="11" viewBox="0 0 14 11" fill="none" xmlns="http://www.w3.org/2000/svg">
<path d="M7.79312 0.292791C7.98065 0.105317 8.23496 0 8.50013 0C8.7653 0 9.01961 0.105317 9.20714 0.292791L13.7072 4.79286C13.8947 4.98039 14 5.2347 14 5.49987C14 5.76504 13.8947 6.01935 13.7072 6.20688L9.20714 10.7069C9.01853 10.8891 8.76593 10.9899 8.50373 10.9876C8.24153 10.9853 7.99071 10.8802 7.8053 10.6948C7.61989 10.5094 7.51472 10.2585 7.51244 9.99634C7.51016 9.73414 7.61096 9.48153 7.79312 9.29293L10.5002 6.49989H1.00002C0.734795 6.49989 0.480437 6.39453 0.292898 6.20699C0.105358 6.01945 0 5.76509 0 5.49987C0 5.23465 0.105358 4.98029 0.292898 4.79275C0.480437 4.60521 0.734795 4.49986 1.00002 4.49986H10.5002L7.79312 1.70681C7.60565 1.51928 7.50033 1.26497 7.50033 0.999802C7.50033 0.734633 7.60565 0.480321 7.79312 0.292791Z" fill="#3674B5"/>
</svg>
